<svg xmlns="http://www.w3.org/2000/svg" height="24" viewBox="0 96 960 960" width="24"><path d="M517 924h-75q-11 0-19-7.5T413 898l-11-86q-21-6-46.5-20T313 762l-78 34q-11 5-21.5 1T197 783l-38-66q-6-10-3.5-21t11.5-18l68-51q-2-12-3.5-25t-1.5-25q0-11 1.5-23.5T235 525l-68-51q-9-7-11.5-18t3.5-21l38-64q6-10 16-14t21 1l78 33q20-17 43.5-30.5T401 340l12-86q2-11 10-18.5t19-7.5h75q11 0 19.5 7.5T547 254l11 87q26 9 45.5 20.5T644 391l82-33q11-5 21-1.5t16 13.5l38 65q6 10 3.5 21T793 474l-72 54q4 14 4.5 25.5t.5 22.5q0 10-1 21.5t-4 28.5l70 52q10 6 12 17.5t-4 21.5l-38 66q-6 10-16.5 13.5T723 795l-79-34q-21 18-42 30.5T558 811l-11 87q-2 11-10.5 18.5T517 924Zm-39-260q37 0 62.5-25.5T566 576q0-37-25.5-62.5T478 488q-37 0-62.5 25.5T390 576q0 37 25.5 62.5T478 664Z"/></svg>